<mxfile host="app.diagrams.net" agent="Mozilla/5.0 (Windows NT 10.0; Win64; x64) AppleWebKit/537.36 (KHTML, like Gecko) Chrome/133.0.0.0 Safari/537.36" version="26.1.0">
  <diagram name="Página-1" id="17nt7yimHS2ywIFr4-02">
    <mxGraphModel dx="2261" dy="1941" grid="1" gridSize="10" guides="1" tooltips="1" connect="1" arrows="1" fold="1" page="1" pageScale="1" pageWidth="827" pageHeight="1169" background="none" math="0" shadow="1">
      <root>
        <mxCell id="0" />
        <mxCell id="1" parent="0" />
        <mxCell id="5_Sf68KozivLKXZjo4ao-3" style="edgeStyle=orthogonalEdgeStyle;rounded=0;orthogonalLoop=1;jettySize=auto;html=1;entryX=0;entryY=0.5;entryDx=0;entryDy=0;" parent="1" source="5_Sf68KozivLKXZjo4ao-1" target="5_Sf68KozivLKXZjo4ao-2" edge="1">
          <mxGeometry relative="1" as="geometry" />
        </mxCell>
        <mxCell id="5_Sf68KozivLKXZjo4ao-1" value="Actor" style="shape=umlActor;verticalLabelPosition=bottom;verticalAlign=top;html=1;outlineConnect=0;" parent="1" vertex="1">
          <mxGeometry x="-180" y="-70" width="30" height="60" as="geometry" />
        </mxCell>
        <mxCell id="5_Sf68KozivLKXZjo4ao-5" style="edgeStyle=orthogonalEdgeStyle;rounded=0;orthogonalLoop=1;jettySize=auto;html=1;" parent="1" source="5_Sf68KozivLKXZjo4ao-2" target="5_Sf68KozivLKXZjo4ao-4" edge="1">
          <mxGeometry relative="1" as="geometry" />
        </mxCell>
        <mxCell id="5_Sf68KozivLKXZjo4ao-2" value="&lt;div&gt;App/Login&lt;/div&gt;" style="rounded=1;whiteSpace=wrap;html=1;" parent="1" vertex="1">
          <mxGeometry x="-70" y="-70" width="120" height="60" as="geometry" />
        </mxCell>
        <mxCell id="5_Sf68KozivLKXZjo4ao-8" style="edgeStyle=orthogonalEdgeStyle;rounded=0;orthogonalLoop=1;jettySize=auto;html=1;entryX=0;entryY=0.5;entryDx=0;entryDy=0;" parent="1" source="5_Sf68KozivLKXZjo4ao-4" target="5_Sf68KozivLKXZjo4ao-7" edge="1">
          <mxGeometry relative="1" as="geometry" />
        </mxCell>
        <mxCell id="5_Sf68KozivLKXZjo4ao-4" value="Middleware" style="rounded=0;whiteSpace=wrap;html=1;" parent="1" vertex="1">
          <mxGeometry x="130" y="-70" width="120" height="60" as="geometry" />
        </mxCell>
        <mxCell id="5_Sf68KozivLKXZjo4ao-10" value="" style="edgeStyle=orthogonalEdgeStyle;rounded=0;orthogonalLoop=1;jettySize=auto;html=1;" parent="1" source="5_Sf68KozivLKXZjo4ao-7" target="5_Sf68KozivLKXZjo4ao-9" edge="1">
          <mxGeometry relative="1" as="geometry" />
        </mxCell>
        <mxCell id="5_Sf68KozivLKXZjo4ao-7" value="App/api/login" style="rounded=0;whiteSpace=wrap;html=1;" parent="1" vertex="1">
          <mxGeometry x="340" y="-70" width="120" height="60" as="geometry" />
        </mxCell>
        <mxCell id="5_Sf68KozivLKXZjo4ao-9" value="API/login" style="rounded=0;whiteSpace=wrap;html=1;" parent="1" vertex="1">
          <mxGeometry x="540" y="-70" width="120" height="60" as="geometry" />
        </mxCell>
        <mxCell id="5_Sf68KozivLKXZjo4ao-13" value="Login" style="swimlane;childLayout=stackLayout;resizeParent=1;resizeParentMax=0;startSize=20;html=1;" parent="1" vertex="1">
          <mxGeometry x="150" y="300" width="1010" height="340" as="geometry" />
        </mxCell>
        <mxCell id="5_Sf68KozivLKXZjo4ao-14" value="Interface" style="swimlane;startSize=20;html=1;" parent="5_Sf68KozivLKXZjo4ao-13" vertex="1">
          <mxGeometry y="20" width="210" height="320" as="geometry" />
        </mxCell>
        <mxCell id="5_Sf68KozivLKXZjo4ao-25" value="&lt;div&gt;LOGIN&lt;/div&gt;&lt;div&gt;- Usuario&lt;/div&gt;&lt;div&gt;- Senha&lt;/div&gt;" style="whiteSpace=wrap;html=1;rounded=1;" parent="5_Sf68KozivLKXZjo4ao-14" vertex="1">
          <mxGeometry x="60" y="70" width="120" height="60" as="geometry" />
        </mxCell>
        <mxCell id="5_Sf68KozivLKXZjo4ao-120" value="Home" style="whiteSpace=wrap;html=1;rounded=1;" parent="5_Sf68KozivLKXZjo4ao-14" vertex="1">
          <mxGeometry x="60" y="210" width="120" height="60" as="geometry" />
        </mxCell>
        <mxCell id="5_Sf68KozivLKXZjo4ao-15" value="Middleware" style="swimlane;startSize=20;html=1;" parent="5_Sf68KozivLKXZjo4ao-13" vertex="1">
          <mxGeometry x="210" y="20" width="300" height="320" as="geometry" />
        </mxCell>
        <mxCell id="5_Sf68KozivLKXZjo4ao-101" value="Rota publica?" style="rounded=0;whiteSpace=wrap;html=1;" parent="5_Sf68KozivLKXZjo4ao-15" vertex="1">
          <mxGeometry x="110" y="70" width="120" height="60" as="geometry" />
        </mxCell>
        <mxCell id="5_Sf68KozivLKXZjo4ao-16" value="Login Handle" style="swimlane;startSize=20;html=1;" parent="5_Sf68KozivLKXZjo4ao-13" vertex="1">
          <mxGeometry x="510" y="20" width="250" height="320" as="geometry" />
        </mxCell>
        <mxCell id="5_Sf68KozivLKXZjo4ao-28" value="Envia credenciais" style="whiteSpace=wrap;html=1;" parent="5_Sf68KozivLKXZjo4ao-16" vertex="1">
          <mxGeometry x="65" y="70" width="120" height="60" as="geometry" />
        </mxCell>
        <mxCell id="5_Sf68KozivLKXZjo4ao-114" value="Salvar token&lt;div&gt;Cookie - HttpOnly&lt;/div&gt;" style="whiteSpace=wrap;html=1;" parent="5_Sf68KozivLKXZjo4ao-16" vertex="1">
          <mxGeometry x="65" y="210" width="120" height="60" as="geometry" />
        </mxCell>
        <mxCell id="5_Sf68KozivLKXZjo4ao-99" value="Login Controller" style="swimlane;startSize=20;html=1;" parent="5_Sf68KozivLKXZjo4ao-13" vertex="1">
          <mxGeometry x="760" y="20" width="250" height="320" as="geometry" />
        </mxCell>
        <mxCell id="5_Sf68KozivLKXZjo4ao-113" value="" style="edgeStyle=orthogonalEdgeStyle;rounded=0;orthogonalLoop=1;jettySize=auto;html=1;" parent="5_Sf68KozivLKXZjo4ao-99" source="5_Sf68KozivLKXZjo4ao-100" target="5_Sf68KozivLKXZjo4ao-112" edge="1">
          <mxGeometry relative="1" as="geometry" />
        </mxCell>
        <mxCell id="5_Sf68KozivLKXZjo4ao-100" value="Validar credenciais" style="whiteSpace=wrap;html=1;" parent="5_Sf68KozivLKXZjo4ao-99" vertex="1">
          <mxGeometry x="70" y="70" width="120" height="60" as="geometry" />
        </mxCell>
        <mxCell id="5_Sf68KozivLKXZjo4ao-112" value="Gerar token jwt" style="whiteSpace=wrap;html=1;" parent="5_Sf68KozivLKXZjo4ao-99" vertex="1">
          <mxGeometry x="70" y="210" width="120" height="60" as="geometry" />
        </mxCell>
        <mxCell id="5_Sf68KozivLKXZjo4ao-102" style="edgeStyle=orthogonalEdgeStyle;rounded=0;orthogonalLoop=1;jettySize=auto;html=1;entryX=0;entryY=0.5;entryDx=0;entryDy=0;" parent="5_Sf68KozivLKXZjo4ao-13" source="5_Sf68KozivLKXZjo4ao-25" target="5_Sf68KozivLKXZjo4ao-101" edge="1">
          <mxGeometry relative="1" as="geometry" />
        </mxCell>
        <mxCell id="5_Sf68KozivLKXZjo4ao-103" value="POST /api/login" style="edgeLabel;html=1;align=center;verticalAlign=middle;resizable=0;points=[];" parent="5_Sf68KozivLKXZjo4ao-102" vertex="1" connectable="0">
          <mxGeometry x="0.3341" relative="1" as="geometry">
            <mxPoint x="-23" as="offset" />
          </mxGeometry>
        </mxCell>
        <mxCell id="5_Sf68KozivLKXZjo4ao-105" style="edgeStyle=orthogonalEdgeStyle;rounded=0;orthogonalLoop=1;jettySize=auto;html=1;entryX=0;entryY=0.5;entryDx=0;entryDy=0;" parent="5_Sf68KozivLKXZjo4ao-13" source="5_Sf68KozivLKXZjo4ao-101" target="5_Sf68KozivLKXZjo4ao-28" edge="1">
          <mxGeometry relative="1" as="geometry" />
        </mxCell>
        <mxCell id="5_Sf68KozivLKXZjo4ao-107" value="REQUEST" style="edgeLabel;html=1;align=center;verticalAlign=middle;resizable=0;points=[];" parent="5_Sf68KozivLKXZjo4ao-105" vertex="1" connectable="0">
          <mxGeometry x="-0.1735" y="1" relative="1" as="geometry">
            <mxPoint x="14" as="offset" />
          </mxGeometry>
        </mxCell>
        <mxCell id="5_Sf68KozivLKXZjo4ao-109" style="edgeStyle=orthogonalEdgeStyle;rounded=0;orthogonalLoop=1;jettySize=auto;html=1;entryX=0;entryY=0.5;entryDx=0;entryDy=0;" parent="5_Sf68KozivLKXZjo4ao-13" source="5_Sf68KozivLKXZjo4ao-28" target="5_Sf68KozivLKXZjo4ao-100" edge="1">
          <mxGeometry relative="1" as="geometry" />
        </mxCell>
        <mxCell id="5_Sf68KozivLKXZjo4ao-110" value="POST /login" style="edgeLabel;html=1;align=center;verticalAlign=middle;resizable=0;points=[];" parent="5_Sf68KozivLKXZjo4ao-109" vertex="1" connectable="0">
          <mxGeometry x="0.2631" y="-1" relative="1" as="geometry">
            <mxPoint x="-20" y="-1" as="offset" />
          </mxGeometry>
        </mxCell>
        <mxCell id="5_Sf68KozivLKXZjo4ao-115" value="" style="edgeStyle=orthogonalEdgeStyle;rounded=0;orthogonalLoop=1;jettySize=auto;html=1;" parent="5_Sf68KozivLKXZjo4ao-13" source="5_Sf68KozivLKXZjo4ao-112" target="5_Sf68KozivLKXZjo4ao-114" edge="1">
          <mxGeometry relative="1" as="geometry" />
        </mxCell>
        <mxCell id="5_Sf68KozivLKXZjo4ao-117" value="&lt;div&gt;200 Ok&lt;/div&gt;" style="edgeLabel;html=1;align=center;verticalAlign=middle;resizable=0;points=[];" parent="5_Sf68KozivLKXZjo4ao-115" vertex="1" connectable="0">
          <mxGeometry x="-0.2764" y="2" relative="1" as="geometry">
            <mxPoint x="-11" y="-2" as="offset" />
          </mxGeometry>
        </mxCell>
        <mxCell id="5_Sf68KozivLKXZjo4ao-121" value="" style="edgeStyle=orthogonalEdgeStyle;rounded=0;orthogonalLoop=1;jettySize=auto;html=1;" parent="5_Sf68KozivLKXZjo4ao-13" source="5_Sf68KozivLKXZjo4ao-114" target="5_Sf68KozivLKXZjo4ao-120" edge="1">
          <mxGeometry relative="1" as="geometry" />
        </mxCell>
        <mxCell id="5_Sf68KozivLKXZjo4ao-122" value="Redirect()" style="edgeLabel;html=1;align=center;verticalAlign=middle;resizable=0;points=[];" parent="5_Sf68KozivLKXZjo4ao-121" vertex="1" connectable="0">
          <mxGeometry x="0.2693" y="1" relative="1" as="geometry">
            <mxPoint x="26" y="-1" as="offset" />
          </mxGeometry>
        </mxCell>
        <mxCell id="5_Sf68KozivLKXZjo4ao-38" value="Validar Autenticação" style="swimlane;childLayout=stackLayout;resizeParent=1;resizeParentMax=0;startSize=20;html=1;" parent="1" vertex="1">
          <mxGeometry x="260.00000000000045" y="1048" width="930" height="890" as="geometry" />
        </mxCell>
        <mxCell id="5_Sf68KozivLKXZjo4ao-71" style="edgeStyle=orthogonalEdgeStyle;rounded=0;orthogonalLoop=1;jettySize=auto;html=1;entryX=1;entryY=0.5;entryDx=0;entryDy=0;" parent="5_Sf68KozivLKXZjo4ao-38" source="5_Sf68KozivLKXZjo4ao-61" target="5_Sf68KozivLKXZjo4ao-72" edge="1">
          <mxGeometry relative="1" as="geometry">
            <mxPoint x="99.99999999999955" y="419.9999999999998" as="targetPoint" />
          </mxGeometry>
        </mxCell>
        <mxCell id="5_Sf68KozivLKXZjo4ao-97" value="HTTP" style="edgeLabel;html=1;align=center;verticalAlign=middle;resizable=0;points=[];" parent="5_Sf68KozivLKXZjo4ao-71" vertex="1" connectable="0">
          <mxGeometry x="0.0357" y="-4" relative="1" as="geometry">
            <mxPoint as="offset" />
          </mxGeometry>
        </mxCell>
        <mxCell id="5_Sf68KozivLKXZjo4ao-86" value="" style="edgeStyle=orthogonalEdgeStyle;rounded=1;orthogonalLoop=1;jettySize=auto;html=1;curved=0;" parent="5_Sf68KozivLKXZjo4ao-38" source="5_Sf68KozivLKXZjo4ao-48" target="5_Sf68KozivLKXZjo4ao-85" edge="1">
          <mxGeometry relative="1" as="geometry" />
        </mxCell>
        <mxCell id="5_Sf68KozivLKXZjo4ao-87" value="Request API" style="edgeLabel;html=1;align=center;verticalAlign=middle;resizable=0;points=[];" parent="5_Sf68KozivLKXZjo4ao-86" vertex="1" connectable="0">
          <mxGeometry x="0.5134" y="-1" relative="1" as="geometry">
            <mxPoint x="1" y="-154" as="offset" />
          </mxGeometry>
        </mxCell>
        <mxCell id="5_Sf68KozivLKXZjo4ao-39" value="Api / Interface" style="swimlane;startSize=20;html=1;" parent="5_Sf68KozivLKXZjo4ao-38" vertex="1">
          <mxGeometry y="20" width="190" height="870" as="geometry" />
        </mxCell>
        <mxCell id="5_Sf68KozivLKXZjo4ao-59" value="Login" style="rounded=1;whiteSpace=wrap;html=1;" parent="5_Sf68KozivLKXZjo4ao-39" vertex="1">
          <mxGeometry x="34.999999999999545" y="412" width="120" height="60" as="geometry" />
        </mxCell>
        <mxCell id="5_Sf68KozivLKXZjo4ao-72" value="Pagina&amp;nbsp;" style="rounded=1;whiteSpace=wrap;html=1;" parent="5_Sf68KozivLKXZjo4ao-39" vertex="1">
          <mxGeometry x="33.999999999999545" y="552" width="120" height="60" as="geometry" />
        </mxCell>
        <mxCell id="5_Sf68KozivLKXZjo4ao-89" value="Response" style="rounded=0;whiteSpace=wrap;html=1;" parent="5_Sf68KozivLKXZjo4ao-39" vertex="1">
          <mxGeometry x="34.999999999999545" y="692" width="120" height="60" as="geometry" />
        </mxCell>
        <mxCell id="5_Sf68KozivLKXZjo4ao-43" value="&lt;div&gt;&lt;span style=&quot;background-color: transparent; color: light-dark(rgb(0, 0, 0), rgb(255, 255, 255));&quot;&gt;Pagina privada&lt;/span&gt;&lt;/div&gt;" style="rounded=1;whiteSpace=wrap;html=1;" parent="5_Sf68KozivLKXZjo4ao-39" vertex="1">
          <mxGeometry x="34.999999999999545" y="252" width="120" height="60" as="geometry" />
        </mxCell>
        <mxCell id="5_Sf68KozivLKXZjo4ao-40" value="Middleware" style="swimlane;startSize=20;html=1;" parent="5_Sf68KozivLKXZjo4ao-38" vertex="1">
          <mxGeometry x="190" y="20" width="410" height="870" as="geometry" />
        </mxCell>
        <mxCell id="5_Sf68KozivLKXZjo4ao-52" value="Constantes&lt;div&gt;- Rotas Publicas&lt;/div&gt;&lt;div&gt;- Rotas Privadas&lt;/div&gt;" style="shape=parallelogram;perimeter=parallelogramPerimeter;whiteSpace=wrap;html=1;fixedSize=1;" parent="5_Sf68KozivLKXZjo4ao-40" vertex="1">
          <mxGeometry x="130" y="41" width="150" height="60" as="geometry" />
        </mxCell>
        <mxCell id="8" style="edgeStyle=orthogonalEdgeStyle;html=1;entryX=0;entryY=0.5;entryDx=0;entryDy=0;" parent="5_Sf68KozivLKXZjo4ao-40" source="5_Sf68KozivLKXZjo4ao-91" target="5_Sf68KozivLKXZjo4ao-48" edge="1">
          <mxGeometry relative="1" as="geometry" />
        </mxCell>
        <mxCell id="5_Sf68KozivLKXZjo4ao-91" value="Request Api" style="rounded=0;whiteSpace=wrap;html=1;" parent="5_Sf68KozivLKXZjo4ao-40" vertex="1">
          <mxGeometry x="-155.00000000000045" y="122" width="120" height="60" as="geometry" />
        </mxCell>
        <mxCell id="5_Sf68KozivLKXZjo4ao-48" value="&lt;div style=&quot;line-height: 100%;&quot;&gt;Autenticado?&lt;div&gt;&lt;/div&gt;&lt;/div&gt;" style="rounded=0;whiteSpace=wrap;html=1;align=center;" parent="5_Sf68KozivLKXZjo4ao-40" vertex="1">
          <mxGeometry x="160" y="182" width="120" height="60" as="geometry" />
        </mxCell>
        <mxCell id="5_Sf68KozivLKXZjo4ao-41" value="Controller" style="swimlane;startSize=20;html=1;" parent="5_Sf68KozivLKXZjo4ao-38" vertex="1">
          <mxGeometry x="600" y="20" width="330" height="870" as="geometry" />
        </mxCell>
        <mxCell id="5_Sf68KozivLKXZjo4ao-61" value="Consulta/Gerar pagina" style="whiteSpace=wrap;html=1;rounded=0;" parent="5_Sf68KozivLKXZjo4ao-41" vertex="1">
          <mxGeometry x="50" y="552" width="140" height="60" as="geometry" />
        </mxCell>
        <mxCell id="5_Sf68KozivLKXZjo4ao-85" value="&lt;div style=&quot;line-height: 100%;&quot;&gt;/api/(request)&lt;/div&gt;" style="rounded=0;whiteSpace=wrap;html=1;align=center;" parent="5_Sf68KozivLKXZjo4ao-41" vertex="1">
          <mxGeometry x="160" y="692" width="120" height="60" as="geometry" />
        </mxCell>
        <mxCell id="5_Sf68KozivLKXZjo4ao-90" style="edgeStyle=orthogonalEdgeStyle;rounded=0;orthogonalLoop=1;jettySize=auto;html=1;entryX=1;entryY=0.5;entryDx=0;entryDy=0;" parent="5_Sf68KozivLKXZjo4ao-38" source="5_Sf68KozivLKXZjo4ao-85" target="5_Sf68KozivLKXZjo4ao-89" edge="1">
          <mxGeometry relative="1" as="geometry" />
        </mxCell>
        <mxCell id="5_Sf68KozivLKXZjo4ao-98" value="HTTP" style="edgeLabel;html=1;align=center;verticalAlign=middle;resizable=0;points=[];" parent="5_Sf68KozivLKXZjo4ao-90" vertex="1" connectable="0">
          <mxGeometry x="0.1944" y="-4" relative="1" as="geometry">
            <mxPoint as="offset" />
          </mxGeometry>
        </mxCell>
        <mxCell id="5_Sf68KozivLKXZjo4ao-62" value="" style="edgeStyle=orthogonalEdgeStyle;rounded=1;orthogonalLoop=1;jettySize=auto;html=1;entryX=0.5;entryY=0;entryDx=0;entryDy=0;exitX=1;exitY=0.5;exitDx=0;exitDy=0;curved=0;" parent="5_Sf68KozivLKXZjo4ao-38" source="5_Sf68KozivLKXZjo4ao-48" target="5_Sf68KozivLKXZjo4ao-61" edge="1">
          <mxGeometry relative="1" as="geometry">
            <mxPoint x="490" y="210" as="sourcePoint" />
            <mxPoint x="664.9999999999995" y="420" as="targetPoint" />
          </mxGeometry>
        </mxCell>
        <mxCell id="5_Sf68KozivLKXZjo4ao-63" value="Autenticado" style="edgeLabel;html=1;align=center;verticalAlign=middle;resizable=0;points=[];" parent="5_Sf68KozivLKXZjo4ao-62" vertex="1" connectable="0">
          <mxGeometry x="-0.0667" relative="1" as="geometry">
            <mxPoint x="-120" y="-25" as="offset" />
          </mxGeometry>
        </mxCell>
        <mxCell id="5_Sf68KozivLKXZjo4ao-83" value="Pagina Privada" style="edgeLabel;html=1;align=center;verticalAlign=middle;resizable=0;points=[];" parent="5_Sf68KozivLKXZjo4ao-62" vertex="1" connectable="0">
          <mxGeometry x="0.2502" relative="1" as="geometry">
            <mxPoint y="26" as="offset" />
          </mxGeometry>
        </mxCell>
        <mxCell id="5_Sf68KozivLKXZjo4ao-54" value="" style="edgeStyle=orthogonalEdgeStyle;rounded=1;orthogonalLoop=1;jettySize=auto;html=1;entryX=1;entryY=0.5;entryDx=0;entryDy=0;exitX=0.5;exitY=1;exitDx=0;exitDy=0;curved=0;" parent="5_Sf68KozivLKXZjo4ao-38" source="5_Sf68KozivLKXZjo4ao-48" target="5_Sf68KozivLKXZjo4ao-59" edge="1">
          <mxGeometry relative="1" as="geometry">
            <mxPoint x="395" y="432" as="targetPoint" />
            <Array as="points">
              <mxPoint x="410" y="462" />
            </Array>
          </mxGeometry>
        </mxCell>
        <mxCell id="5_Sf68KozivLKXZjo4ao-78" value="Não Autenticado" style="edgeLabel;html=1;align=center;verticalAlign=middle;resizable=0;points=[];" parent="5_Sf68KozivLKXZjo4ao-54" vertex="1" connectable="0">
          <mxGeometry x="-0.0875" y="1" relative="1" as="geometry">
            <mxPoint x="6" y="-131" as="offset" />
          </mxGeometry>
        </mxCell>
        <mxCell id="5_Sf68KozivLKXZjo4ao-123" value="Redirect()" style="edgeLabel;html=1;align=center;verticalAlign=middle;resizable=0;points=[];" parent="5_Sf68KozivLKXZjo4ao-54" vertex="1" connectable="0">
          <mxGeometry x="0.3396" y="3" relative="1" as="geometry">
            <mxPoint x="10" y="-3" as="offset" />
          </mxGeometry>
        </mxCell>
        <mxCell id="9" style="edgeStyle=orthogonalEdgeStyle;html=1;entryX=0;entryY=0.5;entryDx=0;entryDy=0;" parent="5_Sf68KozivLKXZjo4ao-38" source="5_Sf68KozivLKXZjo4ao-43" target="5_Sf68KozivLKXZjo4ao-48" edge="1">
          <mxGeometry relative="1" as="geometry">
            <mxPoint x="339.99999999999955" y="302" as="targetPoint" />
          </mxGeometry>
        </mxCell>
        <mxCell id="10" value="HTTP" style="edgeLabel;html=1;align=center;verticalAlign=middle;resizable=0;points=[];" parent="9" vertex="1" connectable="0">
          <mxGeometry x="0.4618" y="2" relative="1" as="geometry">
            <mxPoint x="21" y="2" as="offset" />
          </mxGeometry>
        </mxCell>
        <mxCell id="5_Sf68KozivLKXZjo4ao-76" style="edgeStyle=orthogonalEdgeStyle;rounded=0;orthogonalLoop=1;jettySize=auto;html=1;entryX=0.534;entryY=0;entryDx=0;entryDy=0;entryPerimeter=0;endArrow=none;startFill=0;dashed=1;" parent="1" source="5_Sf68KozivLKXZjo4ao-73" target="5_Sf68KozivLKXZjo4ao-38" edge="1">
          <mxGeometry relative="1" as="geometry">
            <mxPoint x="758" y="1030" as="targetPoint" />
          </mxGeometry>
        </mxCell>
        <mxCell id="5_Sf68KozivLKXZjo4ao-73" value="&lt;h1 style=&quot;margin-top: 0px;&quot;&gt;Middleware&lt;/h1&gt;&lt;div&gt;Autenticado?&lt;/div&gt;&lt;div&gt;&lt;span style=&quot;background-color: transparent; color: light-dark(rgb(0, 0, 0), rgb(255, 255, 255));&quot;&gt;- Existe sessão do token?&lt;/span&gt;&lt;/div&gt;" style="text;html=1;whiteSpace=wrap;overflow=hidden;rounded=0;fillColor=default;strokeColor=default;" parent="1" vertex="1">
          <mxGeometry x="910" y="870" width="180" height="120" as="geometry" />
        </mxCell>
        <mxCell id="5_Sf68KozivLKXZjo4ao-104" style="edgeStyle=orthogonalEdgeStyle;rounded=0;orthogonalLoop=1;jettySize=auto;html=1;entryX=0.5;entryY=1;entryDx=0;entryDy=0;exitX=0.75;exitY=0;exitDx=0;exitDy=0;" parent="1" source="5_Sf68KozivLKXZjo4ao-15" target="5_Sf68KozivLKXZjo4ao-108" edge="1">
          <mxGeometry relative="1" as="geometry">
            <Array as="points">
              <mxPoint x="585" y="280" />
              <mxPoint x="850" y="280" />
            </Array>
          </mxGeometry>
        </mxCell>
        <mxCell id="5_Sf68KozivLKXZjo4ao-108" value="&lt;h1 style=&quot;margin-top: 0px;&quot;&gt;Middleware&lt;/h1&gt;&lt;div&gt;Validações:&lt;/div&gt;&lt;div&gt;-&amp;nbsp;&lt;span style=&quot;background-color: transparent; color: light-dark(rgb(0, 0, 0), rgb(255, 255, 255));&quot;&gt;Rota é publica?&lt;/span&gt;&lt;/div&gt;" style="text;html=1;whiteSpace=wrap;overflow=hidden;rounded=0;fillColor=default;strokeColor=default;" parent="1" vertex="1">
          <mxGeometry x="760" y="130" width="180" height="120" as="geometry" />
        </mxCell>
      </root>
    </mxGraphModel>
  </diagram>
</mxfile>
